<?xml version="1.0" encoding="UTF-8" standalone="no"?>
<!DOCTYPE svg PUBLIC "-//W3C//DTD SVG 1.1//EN" "http://www.w3.org/Graphics/SVG/1.1/DTD/svg11.dtd">
<svg width="100%" height="100%" viewBox="0 0 70 115" version="1.1" xmlns="http://www.w3.org/2000/svg" xmlns:xlink="http://www.w3.org/1999/xlink" xml:space="preserve" xmlns:serif="http://www.serif.com/" style="fill-rule:evenodd;clip-rule:evenodd;stroke-linejoin:round;stroke-miterlimit:2;">
    <g transform="matrix(1,0,0,1,-10770.6,-1204.29)">
        <g transform="matrix(1,0,0,1,9115.83,0)">
            <g id="Layer5" transform="matrix(1,0,0,1,-9115.83,0)">
                <path d="M10824.4,1311.75C10822.1,1305.92 10821.8,1299.7 10824.1,1293.55C10825.9,1288.85 10830.2,1285.27 10833.3,1281.37C10834.8,1279.38 10837.7,1273.08 10838.1,1272.33C10838.2,1272.12 10838.2,1272.78 10838.2,1273C10838.3,1273.51 10839.3,1277.51 10839.6,1279.04C10840.4,1283.52 10840.6,1288.51 10838.9,1292.81C10837.6,1295.88 10835.6,1298.74 10833,1300.83C10829.6,1303.61 10824.7,1306.67 10824.4,1311.75Z" style="fill:rgb(238,99,82);"/>
                <path d="M10809.9,1305.55C10808.5,1302.05 10806.3,1298.76 10805.5,1295.04C10804.7,1291.08 10804.1,1286.54 10804.6,1282.5C10805.7,1272.69 10814.2,1265.07 10819.6,1257.45C10821.4,1254.98 10823.2,1252.43 10824.3,1249.57C10824.6,1248.71 10824.8,1246.03 10824.9,1246C10825.1,1245.88 10826.4,1250.13 10826.7,1251.34C10828.3,1257.03 10828.7,1263.36 10828,1269.2C10826.8,1279.12 10819.8,1286.38 10814.6,1294.43C10812.5,1297.61 10811.1,1301.51 10809.9,1305.55Z" style="fill:rgb(238,99,82);"/>
                <path d="M10819.9,1318.04C10812.3,1319.64 10803.3,1319.4 10796,1316.11C10791.9,1314.24 10787.8,1312.66 10784.3,1309.91C10775.8,1303.37 10770.1,1292.97 10770.7,1281.87C10771,1275.77 10773.6,1269.88 10776.7,1264.68C10781.7,1256.12 10788.6,1248.88 10794,1240.59C10798.7,1233.27 10802.6,1225.44 10804.9,1217.04C10805.6,1214.26 10806.4,1211.47 10807.1,1208.69C10807.4,1207.76 10807.8,1204.18 10807.9,1204.3C10808.8,1205.11 10809.3,1206.85 10809.8,1207.89C10811.9,1211.99 10813.1,1216.53 10814,1220.97C10815.9,1229.65 10816.8,1237.98 10813.6,1246.52C10811.1,1253.52 10806.7,1260 10802.7,1266.24C10800,1270.45 10797.1,1274.79 10795.6,1279.62C10794.1,1284.79 10794.2,1291.13 10795.6,1296.35C10796.4,1299.33 10797.9,1302.26 10799.6,1304.85C10801.6,1307.96 10803.4,1309.84 10806.5,1311.75C10809.6,1313.59 10817,1316.44 10819.2,1317.08" style="fill:rgb(238,99,82);"/>
            </g>
        </g>
    </g>
</svg>
